<?xml version="1.0" encoding="utf-8"?>
<!-- Generator: Adobe Illustrator 15.1.0, SVG Export Plug-In . SVG Version: 6.00 Build 0)  -->
<!DOCTYPE svg PUBLIC "-//W3C//DTD SVG 1.1//EN" "http://www.w3.org/Graphics/SVG/1.1/DTD/svg11.dtd">
<svg version="1.1" id="Layer_1" xmlns="http://www.w3.org/2000/svg" xmlns:xlink="http://www.w3.org/1999/xlink" x="0px" y="0px"
	 width="24px" height="24px" viewBox="0 0 24 24" enable-background="new 0 0 24 24" xml:space="preserve">
<g>
	<g>
		<path fill="#E7FE7E" d="M8.403,18.498h-2.7V9.814h2.7V18.498z M7.055,8.629c-0.865,0-1.565-0.702-1.565-1.565S6.19,5.5,7.055,5.5
			c0.862,0,1.562,0.701,1.562,1.564C8.617,7.928,7.917,8.629,7.055,8.629z M18.51,18.498h-2.695v-4.223
			c0-1.008-0.02-2.302-1.404-2.302c-1.403,0-1.617,1.099-1.617,2.229V18.5h-2.696V9.814h2.586v1.187h0.037
			c0.36-0.682,1.241-1.402,2.553-1.402c2.734,0,3.236,1.798,3.236,4.135V18.498z"/>
	</g>
</g>
</svg>
