<?xml version="1.0" encoding="utf-8"?>
<!-- Generator: Adobe Illustrator 15.1.0, SVG Export Plug-In . SVG Version: 6.00 Build 0)  -->
<!DOCTYPE svg PUBLIC "-//W3C//DTD SVG 1.1//EN" "http://www.w3.org/Graphics/SVG/1.1/DTD/svg11.dtd">
<svg version="1.1" id="Layer_1" xmlns="http://www.w3.org/2000/svg" xmlns:xlink="http://www.w3.org/1999/xlink" x="0px" y="0px"
	 width="24px" height="24px" viewBox="0 0 24 24" enable-background="new 0 0 24 24" xml:space="preserve">
<g id="sZb9Ah_2_">
	<g>
		<g>
			<path fill="#333333" d="M14.861,5.447c0.141,0,0.28,0,0.421,0c0.989,0.087,1.662,0.495,2.201,1.038
				c0.785-0.171,1.47-0.45,2.075-0.8c-0.259,0.81-0.758,1.383-1.401,1.809c0.692-0.086,1.282-0.279,1.837-0.505
				c0,0.005,0,0.009,0,0.014c-0.445,0.663-0.998,1.217-1.629,1.696c0.026,3.1-1.057,5.242-2.535,6.859
				c-1.48,1.611-3.55,2.76-6.496,2.89c-0.192,0-0.383,0-0.575,0c-1.988-0.09-3.474-0.676-4.753-1.476c0-0.005,0-0.007,0-0.013
				c1.03,0.122,1.989-0.018,2.791-0.267c0.725-0.225,1.43-0.579,1.95-0.996c0.016-0.013,0.082-0.044,0.055-0.084
				c-1.622-0.142-2.533-0.989-3-2.284c0.453,0.082,1.049,0.073,1.443-0.058c-1.527-0.422-2.509-1.39-2.594-3.254
				c0.414,0.207,0.863,0.373,1.445,0.409c-0.546-0.396-1.053-1.011-1.289-1.81c-0.254-0.859-0.102-1.96,0.321-2.566
				c1.567,1.824,3.585,3.194,6.747,3.422c-0.258-1.142,0.119-2.157,0.633-2.791C13.038,6.017,13.812,5.547,14.861,5.447z"/>
		</g>
	</g>
</g>
</svg>
