<?xml version="1.0" encoding="utf-8"?>
<!-- Generator: Adobe Illustrator 15.1.0, SVG Export Plug-In . SVG Version: 6.00 Build 0)  -->
<!DOCTYPE svg PUBLIC "-//W3C//DTD SVG 1.1//EN" "http://www.w3.org/Graphics/SVG/1.1/DTD/svg11.dtd">
<svg version="1.1" id="Layer_1" xmlns="http://www.w3.org/2000/svg" xmlns:xlink="http://www.w3.org/1999/xlink" x="0px" y="0px"
	 width="24px" height="24px" viewBox="0 0 24 24" enable-background="new 0 0 24 24" xml:space="preserve">
<path fill="#E7FE7E" d="M12,5.5c-3.59,0-6.509,2.915-6.509,6.5c0,3.584,2.919,6.5,6.509,6.5c3.588,0,6.51-2.916,6.51-6.5
	C18.51,8.415,15.588,5.5,12,5.5z M13.699,11.743c-0.036-0.086-0.072-0.175-0.11-0.265c-0.11-0.257-0.229-0.517-0.354-0.77
	c1.926-0.793,2.854-1.893,3.049-2.143c0.738,0.921,1.191,2.084,1.213,3.349c-0.246-0.05-1.293-0.246-2.545-0.246
	C14.549,11.669,14.125,11.691,13.699,11.743z M6.502,11.873c0.034,0,0.081,0,0.146,0c0.682,0,3.05-0.058,5.49-0.781
	c0.148,0.291,0.29,0.584,0.42,0.878c-0.062,0.017-0.123,0.037-0.184,0.055c-2.748,0.889-4.257,3.237-4.492,3.622
	c-0.859-0.97-1.381-2.244-1.381-3.639C6.502,11.962,6.502,11.918,6.502,11.873z M9.636,7.05c0.19,0.262,1.131,1.576,2.014,3.133
	c-2.365,0.622-4.465,0.663-4.971,0.663c-0.019,0-0.039,0-0.055,0C6.988,9.167,8.123,7.772,9.636,7.05z M12.781,9.831
	c-0.857-1.57-1.798-2.869-2.022-3.171C11.158,6.567,11.572,6.517,12,6.517c1.389,0,2.654,0.515,3.624,1.366
	C15.469,8.09,14.637,9.129,12.781,9.831z M12.954,12.947c0.003,0,0.005-0.002,0.006-0.002c0.756,1.966,1.075,3.615,1.163,4.127
	c-0.652,0.275-1.37,0.43-2.123,0.43c-1.262,0-2.425-0.43-3.354-1.146C8.803,16.049,9.941,13.995,12.954,12.947z M15.114,16.533
	c-0.074-0.426-0.371-1.971-1.056-3.858c0.383-0.059,0.758-0.082,1.107-0.082c1.146,0,2.047,0.251,2.256,0.315
	C17.175,14.407,16.314,15.703,15.114,16.533z"/>
</svg>
